<svg width="210" height="48" viewBox="0 0 210 48" fill="none" xmlns="http://www.w3.org/2000/svg">
<g clip-path="url(#clip0_1039_3477)">
<path fill-rule="evenodd" clip-rule="evenodd" d="M209.723 24.0849C209.723 29.0072 205.724 32.9829 200.772 32.9829C195.82 32.9829 191.82 29.0072 191.82 24.0849C191.82 19.1625 195.82 15.1868 200.772 15.1868C205.724 15.2341 209.723 19.2098 209.723 24.0849Z" fill="#12100B"/>
<path fill-rule="evenodd" clip-rule="evenodd" d="M146.824 14.2875C146.729 14.6661 146.586 15.2814 146.395 16.1334C146.062 17.5533 145.824 19.1625 145.586 20.7717C145.586 20.819 145.586 20.8664 145.348 22.3336V22.4283C145.157 23.5642 144.681 26.4987 144.824 27.4453C145.062 27.5399 145.395 27.6346 145.776 27.6346C146.253 27.6346 146.776 27.5399 147.3 27.3033C148.252 26.8773 149.252 25.9307 150.062 24.2742C150.824 22.7123 151.3 21.0084 151.49 19.2572C151.585 18.4999 151.538 17.7426 151.395 17.0326C151.204 16.0387 150.824 15.1394 150.3 14.5241C149.633 13.7195 148.633 13.4829 147.633 13.5775C147.014 13.6722 146.919 13.8615 146.824 14.2875ZM147.348 11.495C145.062 11.921 144.872 12.3943 144.158 15.7074C143.729 17.7426 143.443 19.9198 143.062 22.0496C142.872 23.3275 142.158 27.4453 142.729 28.7232C143.443 30.2378 148.967 31.5157 151.966 25.3154C152.823 23.5642 153.395 21.6237 153.585 19.5885C154.061 15.2814 151.728 10.6431 147.348 11.495Z" fill="#12100B"/>
<path fill-rule="evenodd" clip-rule="evenodd" d="M176.155 44.2475C176.25 44.2002 176.297 44.1056 176.393 44.0582V44.2475H176.155Z" fill="#D90078"/>
<path d="M66.0213 5.24732C65.2118 4.86867 64.3071 4.82135 63.4501 5.19999C62.1645 5.76795 61.5455 6.90388 60.9741 8.13446C58.8314 13.0568 57.9267 17.1745 56.7364 22.3335C56.5459 23.0908 56.3078 24.1321 55.3079 23.9428C54.4032 23.8008 54.3556 22.8068 54.2128 22.0969C53.8795 20.393 53.4033 17.6005 53.2129 16.8432C52.451 13.6721 51.5463 10.5956 50.2607 7.61383C49.6894 6.28858 48.9275 5.15266 47.7848 4.25338C46.0706 2.97547 44.0232 2.69149 42.1186 3.4961C39.7378 4.53736 38.1189 6.85655 37.119 9.1284C36.5476 10.4063 36.0239 11.8736 35.5477 13.4828C35.7858 14.8554 35.9286 16.2753 35.9762 17.7425C36.0715 20.393 35.881 23.0908 35.4049 25.694C34.9287 28.4391 34.2145 31.0896 33.3574 33.4561C33.4527 35.6333 33.6907 37.7159 34.1193 39.4671C34.3573 40.603 34.9763 42.7802 35.7858 43.7741C36.1667 44.2474 36.5952 44.6261 37.0714 44.8154C37.8808 45.194 38.7379 45.2414 39.5474 44.9101C39.6426 44.8627 39.6902 44.8627 39.7854 44.8154C42.2138 43.5375 44.0232 36.9586 44.785 34.3554C45.6421 31.4683 45.9754 29.6224 46.4515 26.7353C46.5944 25.9306 46.9277 25.0787 47.88 25.268C48.7847 25.4573 48.8323 26.2619 48.9751 27.0192C49.7846 31.3736 51.6892 41.3603 55.4031 44.0581C57.3077 45.478 59.6409 45.62 61.7359 44.4368C63.4025 43.4902 64.7833 41.7389 65.6404 40.0824C67.4497 36.6273 68.7829 31.0423 69.4019 25.3153C69.8305 21.1503 70.1638 12.0629 68.164 7.61383C67.6402 6.66722 67.0212 5.72062 66.0213 5.24732Z" fill="#FFDD00"/>
<path fill-rule="evenodd" clip-rule="evenodd" d="M72.7351 21.6237C71.878 26.262 71.3066 30.3798 71.3066 33.9295C71.3066 36.864 71.8304 42.307 74.4968 44.2475C75.4491 44.9101 76.5919 45.1941 77.7347 45.0995C78.925 45.0048 80.0202 44.6262 80.9249 44.0109C82.9247 42.6383 84.0199 39.2305 84.6865 36.438V36.3434C84.3055 32.6043 84.3532 28.1552 84.7341 23.7062C84.7817 23.0436 84.8293 22.4283 84.9245 21.813C83.2104 22.7122 81.401 23.2329 79.6393 23.3275C77.0681 23.4695 74.6873 22.9016 72.7351 21.6237Z" fill="#1788CA"/>
<path d="M85.2093 18.9258C85.257 18.6891 85.3046 18.4051 85.3522 18.1685C85.495 17.2219 85.6855 16.3226 85.9236 15.376C85.8759 15.4233 85.8283 15.4707 85.7807 15.518C84.6856 16.6066 83.3524 17.4585 81.9715 17.9792C81.4478 18.1685 80.924 18.3578 80.4002 18.4525C79.8765 18.5471 79.3051 18.6418 78.7813 18.6418C78.2099 18.6418 77.6862 18.6418 77.1624 18.5471C76.6386 18.4525 76.1149 18.3105 75.6387 18.1212C74.6864 17.7425 73.8294 17.1746 73.0675 16.3699C72.5914 15.8493 72.1628 15.234 71.7819 14.5241C71.7819 14.5714 71.7819 14.6661 71.7819 14.7134C71.8771 16.3226 71.9248 17.9792 71.9248 19.5411C72.5914 19.3044 73.3532 19.3517 73.9722 19.7777C74.734 20.251 75.5911 20.6297 76.4958 20.8663C77.4481 21.103 78.448 21.1976 79.4479 21.103C80.4002 21.0556 81.4001 20.819 82.3524 20.4877C83.2571 20.1564 84.1142 19.7304 84.9237 19.1624C84.9713 19.0678 85.1141 19.0204 85.2093 18.9258ZM122.159 21.6236C121.301 26.262 120.73 30.3797 120.73 33.9295C120.73 37.0059 121.111 39.6091 122.063 41.7389C122.492 42.6856 123.063 43.6322 123.873 44.2475C124.825 44.9101 125.968 45.194 127.111 45.0994C128.301 45.0047 129.396 44.6261 130.301 44.0108C132.92 42.2123 134.015 36.9586 134.538 34.1188C135.3 30.0957 135.681 25.3627 135.729 20.9136C133.634 22.3809 131.301 23.1855 129.015 23.3275C126.492 23.4695 124.111 22.9015 122.159 21.6236ZM82.781 3.68544C81.9239 3.35413 81.0192 3.1648 80.1145 3.11747C79.1622 3.07014 78.2099 3.25946 77.2576 3.59078C76.1149 4.01675 75.0197 4.77404 74.2103 5.76797C73.4484 6.76191 72.9247 7.99249 72.8294 9.4124C72.7818 10.4537 72.9723 11.6369 73.4484 12.8675C74.0674 14.4767 75.115 15.4707 76.4006 15.9913C77.1148 16.2753 77.8766 16.4173 78.6385 16.3699C79.4479 16.3699 80.305 16.1806 81.1144 15.8493C83.2095 15.0447 85.1141 13.3408 86.114 10.8796C86.3997 10.1697 86.5426 9.45973 86.5902 8.84444C86.6378 7.61385 86.2569 6.57258 85.5903 5.72064C84.9236 4.82136 83.9237 4.11141 82.781 3.68544ZM28.2142 4.34806C26.5001 4.01675 25.0716 5.342 24.0241 6.52525C22.5004 8.3238 21.31 10.5483 20.5006 13.1515C19.7864 15.3287 19.3578 17.7425 19.1198 20.393C19.0721 21.245 19.0245 22.0969 18.9769 22.9015C18.9293 23.4695 18.8817 24.1321 18.3103 24.3687C18.0246 24.5107 17.7865 24.4634 17.5009 24.3214C16.9771 23.9901 17.0247 23.3275 17.0723 22.7595C17.1199 21.9076 17.2152 21.103 17.3104 20.251C17.4532 17.6005 17.358 15.1394 17.0247 12.9148C16.5962 10.1697 15.7391 7.75584 14.4059 5.72064C13.1203 3.73277 11.0728 2.12354 8.83492 3.7801C7.07317 5.05801 5.12096 8.93909 4.35912 10.927C2.93067 14.7607 2.35929 19.0204 2.4069 23.1382C2.50213 28.5811 3.64489 33.7401 5.2638 37.2426C9.64438 46.7086 21.6434 48.3178 27.7857 39.5618C28.9761 37.9052 30.1188 35.6807 31.0711 33.1722C31.0711 32.9355 31.0711 32.7462 31.0711 32.5096C30.9759 29.6697 31.1187 26.6406 31.4044 23.7061C31.6901 20.7243 32.1663 17.7898 32.7853 15.1867C32.9281 14.6187 33.0709 14.0508 33.2138 13.4828C33.0709 12.7255 32.8805 11.9209 32.6424 11.2109C32.2615 9.93303 31.4996 7.66118 30.3569 6.09928C29.7855 5.15268 29.0713 4.53738 28.2142 4.34806ZM35.5469 13.5775C35.785 14.95 35.9278 16.3699 35.9755 17.8372C36.0707 20.4877 35.8802 23.1855 35.4041 25.7887C34.9279 28.5338 34.2137 31.1843 33.3566 33.5508C33.4519 35.728 33.6899 37.8105 34.1185 39.5618C34.3565 40.6977 34.9755 42.8749 35.785 43.8688C36.1659 44.3421 36.5945 44.7208 37.0706 44.9101C37.8801 45.2887 38.7371 45.336 39.5942 45.0047C39.6894 44.9574 39.737 44.9574 39.7847 44.9101C42.213 43.6322 44.0224 37.0533 44.7842 34.4974C45.6413 31.6103 45.9746 29.7644 46.4508 26.8772C46.5936 26.0726 46.9269 25.2207 47.8792 25.41C48.7839 25.5993 48.8315 26.4039 48.9743 27.1612C49.7838 31.5156 51.6884 41.5023 55.4024 44.2001C57.307 45.62 59.6401 45.762 61.7352 44.5788C63.4017 43.6322 64.7825 41.8809 65.6396 40.2244C67.449 36.7693 68.7822 31.1843 69.4012 25.4573C69.8297 21.2923 70.163 12.2049 68.1632 7.75584C67.7346 6.7619 67.068 5.86263 66.0681 5.342C65.2587 4.96336 64.354 4.91603 63.4969 5.29467C62.2113 5.86263 61.5923 6.99855 61.0209 8.22914C58.8783 13.1515 57.9736 17.2692 56.7832 22.4282C56.5927 23.1855 56.3547 24.2268 55.3548 24.0374C54.4501 23.8954 54.4025 22.9015 54.2596 22.1916C53.9263 20.4877 53.4502 17.6952 53.2597 16.9379C52.4979 13.7668 51.5932 10.6903 50.3076 7.70851C49.7362 6.38326 48.9743 5.24734 47.8316 4.34806C46.1174 3.07015 44.07 2.78616 42.1654 3.59078C39.7847 4.63204 38.1657 6.95122 37.1658 9.22307C36.5468 10.4537 36.0231 11.9209 35.5469 13.5775ZM136.253 18.7365C136.443 16.6539 136.681 14.5241 136.967 12.4415C136.395 13.6248 135.634 14.6187 134.777 15.4707C133.681 16.5593 132.348 17.4112 130.967 17.9318C130.444 18.1212 129.92 18.3105 129.396 18.4051C128.872 18.4998 128.301 18.5945 127.777 18.5945C127.206 18.5945 126.682 18.5945 126.158 18.4998C125.634 18.4051 125.111 18.2632 124.635 18.0738C123.682 17.6952 122.825 17.1272 122.063 16.3226C121.397 15.6127 120.825 14.7134 120.444 13.6721C120.349 13.4828 120.302 13.2935 120.254 13.1042C119.587 14.4294 118.826 15.7073 118.064 16.9379C117.492 17.8845 116.873 18.8784 116.397 19.825C115.873 20.8663 115.54 21.8129 115.445 22.7122C115.302 23.6115 115.35 24.5107 115.492 25.3627C115.731 26.7826 116.302 28.1552 116.873 29.5751C117.397 30.8057 117.921 32.0836 118.349 33.5981C118.397 33.7401 118.445 33.8821 118.492 34.0715C118.492 34.0241 118.492 33.9295 118.492 33.8821C118.492 31.9889 118.635 30.001 118.873 27.8712C119.111 25.8833 119.444 23.7061 119.921 21.3396C119.968 21.0083 120.063 20.6297 120.302 20.3457C120.968 19.3044 122.397 19.0204 123.444 19.7304C124.206 20.2037 125.063 20.5823 125.968 20.819C126.92 21.0556 127.92 21.1503 128.92 21.0556C129.872 21.0083 130.872 20.7717 131.824 20.4403C132.681 20.109 133.586 19.6831 134.396 19.1151C134.777 18.8311 135.3 18.6418 135.824 18.6418C135.919 18.6891 136.11 18.6891 136.253 18.7365ZM131.872 3.68544C131.015 3.35413 130.11 3.1648 129.206 3.11747C128.253 3.07014 127.301 3.25946 126.349 3.59078C125.206 4.01675 124.111 4.77404 123.301 5.76797C122.539 6.76191 122.016 7.99249 121.92 9.4124C121.873 10.4537 122.063 11.6369 122.539 12.8675C123.158 14.4767 124.206 15.4707 125.492 15.9913C126.206 16.2753 126.968 16.4173 127.73 16.3699C128.539 16.3699 129.396 16.1806 130.205 15.8493C132.301 15.0447 134.205 13.3408 135.205 10.8796C135.491 10.1697 135.634 9.45973 135.681 8.84444C135.729 7.61385 135.348 6.57258 134.681 5.72064C134.015 4.82136 133.015 4.11141 131.872 3.68544ZM164.012 31.9889C164.393 31.9416 164.774 31.8943 165.155 31.8943C164.869 31.6103 164.583 31.3263 164.298 31.0423C164.203 31.3736 164.107 31.7049 164.012 31.9889ZM162.727 9.03375C163.488 7.66118 164.441 6.43059 165.488 5.342C167.774 3.02282 170.44 1.69757 173.202 1.17694C175.63 0.750963 178.106 0.940284 180.439 1.65024C182.772 2.40752 184.915 3.68544 186.677 5.38933C188.915 7.56652 190.581 10.4537 191.2 13.9088C191.534 15.802 191.438 17.3639 191.01 18.6418C190.581 19.825 189.915 20.7717 189.01 21.4343C188.153 22.0496 187.153 22.4755 186.058 22.6649C185.01 22.8542 183.915 22.8542 182.772 22.7595C184.487 24.4634 185.486 26.6406 185.915 28.9598C186.486 32.0362 186.058 35.3967 184.915 38.1892C183.629 41.4076 181.582 43.8215 178.963 45.3834C176.297 46.9926 173.154 47.7026 169.726 47.4186C168.345 47.3239 166.345 46.756 164.441 45.6674C162.965 44.8154 161.489 43.6795 160.393 42.1649C160.06 41.6916 159.727 41.2183 159.489 40.6977C157.346 43.2535 154.68 45.1467 151.537 46.33C148.966 47.2766 145.585 47.6552 142.681 47.2293C139.871 46.8033 137.395 45.62 136.157 43.5848C135.586 42.7329 135.3 41.6916 135.157 40.461C134.348 42.6382 133.205 44.6734 131.539 45.8567C130.92 46.2826 130.253 46.614 129.491 46.8979C128.777 47.1346 128.015 47.2766 127.206 47.3712C126.396 47.4186 125.539 47.3712 124.73 47.1346C123.968 46.9453 123.206 46.5666 122.492 46.0933C121.825 45.62 121.301 45.0521 120.873 44.3894C120.492 43.8215 120.206 43.2535 119.921 42.6382C119.873 42.4962 119.825 42.4016 119.778 42.2596C119.778 42.4016 119.73 42.5436 119.683 42.7329C119.397 44.0108 118.778 45.0994 117.921 45.8567C117.207 46.5193 116.35 46.9926 115.445 47.2293C114.54 47.4659 113.54 47.5132 112.54 47.2766C111.159 46.9926 109.779 46.2353 108.588 44.9574C106.16 42.4016 105.017 40.887 103.303 38.6152C103.16 38.4258 103.541 38.9465 102.351 37.3372C101.303 35.9647 101.113 37.5266 100.732 38.5205C100.446 39.2304 100.113 40.0351 99.6367 41.1237C99.1605 42.1649 98.4939 43.3955 97.7321 44.3894C96.9702 45.336 96.1132 46.188 95.2085 46.6613C93.7324 47.4186 92.2564 47.5132 90.8755 47.1819C89.3518 46.8033 88.0662 45.904 87.1616 44.9101C87.1139 44.8627 87.0187 44.7681 86.9711 44.6734L88.7805 43.3482C89.8756 44.6734 92.1135 45.762 94.1609 44.6734C95.5418 43.9635 96.875 41.8809 97.5892 40.2244C100.018 34.6867 100.351 30.9477 104.16 35.9647C106.446 38.9938 107.493 40.461 110.255 43.3955C113.064 46.33 116.826 45.2414 117.492 42.1649C118.016 39.6564 116.73 36.5799 116.064 34.1188C115.254 31.0423 113.635 28.6758 113.159 25.6467C112.826 23.5168 113.016 21.245 114.302 18.6891C115.826 15.802 117.921 13.1515 118.921 10.075C119.445 8.46579 119.873 6.24127 118.873 4.7267C118.349 3.96942 117.635 3.49612 116.73 3.35413C116.111 3.25946 115.445 3.3068 114.731 3.54345C112.826 4.20607 110.826 6.19394 109.445 7.61385C106.588 10.5483 103.113 14.5241 101.827 14.7607C101.065 14.9027 100.589 14.3821 100.303 13.7194C100.018 13.0095 99.97 12.2049 99.8271 11.4476C99.5891 10.0277 99.3034 8.70244 98.9224 7.51919C98.6368 6.57258 97.9702 5.01068 97.3035 4.2534C96.875 3.82743 96.4465 3.49612 95.9227 3.3068C95.0656 2.97548 94.1609 3.02282 93.3039 3.40146C91.6374 4.20607 91.1136 5.8153 90.4946 7.42453C89.7328 9.31774 89.1138 11.2583 88.59 13.1042C88.0662 15.092 87.6377 16.9379 87.352 18.8784C87.971 19.2571 88.3995 20.0144 88.3995 20.819C88.3995 23.1382 88.2567 25.5047 88.0662 27.8239C87.8758 30.0957 87.5901 32.3202 87.2092 34.4028C87.1139 35.0181 86.9711 35.728 86.7806 36.4853C87.1139 39.5618 87.7329 42.0229 88.7328 43.3482L86.9235 44.6734C86.3045 43.8215 85.7807 42.6382 85.3998 41.2183C84.638 43.0642 83.5428 44.7681 82.0667 45.8093C81.4478 46.2353 80.7811 46.5666 80.0193 46.8506C79.3051 47.0873 78.5432 47.2293 77.7338 47.3239C76.9243 47.3712 76.0673 47.3239 75.2578 47.0873C74.496 46.8979 73.7341 46.5193 73.0199 46.046C71.4962 44.9101 70.4963 43.1115 69.8773 41.1237C69.4964 39.8457 69.2583 38.5205 69.1155 37.2426C68.6393 38.7098 68.0679 40.0351 67.4966 41.171C66.9252 42.2123 66.211 43.3008 65.4015 44.2475C64.6397 45.0994 63.735 45.904 62.7351 46.472C61.3066 47.2766 59.7829 47.6079 58.2593 47.5132C56.7356 47.4186 55.2595 46.8979 53.9739 45.9513C51.6408 44.2474 50.0219 40.6504 48.8315 36.9113C48.3554 35.3494 47.9268 33.7875 47.5935 32.2729C47.3554 33.3142 47.0697 34.3554 46.7364 35.3967C45.8318 38.4732 43.9272 45.1467 40.6893 46.8506C40.0227 47.2293 38.9752 47.4659 38.2134 47.4659C37.4515 47.4659 36.6897 47.2766 35.9278 46.8979C35.5469 46.7086 35.166 46.472 34.7851 46.1407C34.4518 45.8567 34.1661 45.5727 33.8804 45.1941C33.4042 44.5788 32.9757 43.7741 32.6424 42.9222C32.2615 41.8809 31.9282 40.745 31.7853 39.9877C31.6425 39.2778 31.4997 38.5205 31.4044 37.7632C30.833 38.8991 30.214 39.9404 29.5951 40.7923C27.8333 43.3008 25.5954 45.0521 23.2146 46.1407C20.8339 47.2293 18.2627 47.6079 15.7391 47.3712C13.2155 47.1346 10.7871 46.2353 8.64446 44.7208C6.40656 43.1589 4.50196 40.9343 3.16874 38.0472C2.26406 36.1066 1.50222 33.6928 0.978455 30.995C0.45469 28.5338 0.169001 25.7887 0.121386 22.9962C0.0737708 20.7243 0.216616 18.4525 0.597535 16.1806C0.93084 14.0508 1.4546 11.9682 2.21644 9.98036C2.69259 8.70244 3.59728 6.80923 4.64481 5.10535C5.45426 3.7801 6.50179 2.40752 7.83501 1.55558C9.54915 0.466983 11.1681 0.466983 12.6917 1.08228C13.9773 1.60291 15.0249 2.59684 15.8819 3.73277C16.0248 3.92209 16.1676 4.11141 16.3105 4.34806C17.0723 5.53132 17.6913 6.80924 18.1675 8.13448C18.4531 8.98643 18.7388 9.83837 18.9293 10.7376C19.2626 9.93303 19.5959 9.12842 20.0244 8.37113C20.6911 7.14055 21.4529 5.95729 22.31 4.96335C22.929 4.20607 23.7384 3.44879 24.6907 2.83349C25.8335 2.12354 27.1667 1.7449 28.6904 2.02888C29.4998 2.17087 30.214 2.54951 30.833 3.07014C31.3568 3.49612 31.833 4.01675 32.2615 4.63204C32.9281 5.57865 33.4995 6.71457 33.928 7.75584C34.1661 8.3238 34.3565 8.89176 34.547 9.4124C34.7375 8.98642 34.8803 8.56045 35.0708 8.18181C35.6422 6.90389 36.404 5.57865 37.4039 4.39539C38.4514 3.11748 39.737 2.07621 41.2607 1.41359C42.5939 0.845624 43.9748 0.656304 45.3556 0.845625C46.6888 1.03495 48.022 1.55558 49.2124 2.45485C49.9743 3.02282 50.5933 3.68544 51.1646 4.44272C51.6884 5.15268 52.1169 5.90996 52.4502 6.71457C53.1169 8.27647 53.6882 9.8857 54.212 11.4476C54.7358 13.0568 55.1643 14.6661 55.5452 16.2753C55.5928 16.5119 55.6404 16.7959 55.7357 17.1746C56.5451 13.8614 57.4974 10.7376 59.0211 7.18788C59.3544 6.43059 59.7353 5.67331 60.2115 5.01068C60.8305 4.20607 61.5923 3.54345 62.5922 3.11747C63.3064 2.78616 64.0683 2.64417 64.8301 2.64417C65.592 2.64417 66.3538 2.8335 67.068 3.16481C67.9251 3.54345 68.5917 4.11141 69.1155 4.77403C69.5916 5.342 69.9725 6.00462 70.2582 6.66724C70.4963 7.14054 70.6868 7.70851 70.8296 8.27647C70.9248 7.70851 71.0677 7.14054 71.2582 6.61991C71.5438 5.8153 71.9724 5.05802 72.4485 4.44272C72.4961 4.39539 72.4961 4.34806 72.5438 4.30073C73.0675 3.63811 73.6865 3.07014 74.3531 2.59684C75.0197 2.12354 75.7816 1.7449 76.5434 1.41359C77.1624 1.17694 77.7814 0.987615 78.4004 0.892955C79.0194 0.798294 79.6384 0.750965 80.305 0.798296C80.924 0.845626 81.4954 0.892956 82.0667 1.03495C82.5905 1.17694 83.1619 1.31893 83.7333 1.55558C84.4951 1.83956 85.2093 2.26553 85.8283 2.6915C86.4473 3.16481 87.0187 3.68544 87.4949 4.30073C87.971 4.91602 88.3995 5.67331 88.6376 6.47792V6.52525L88.6852 6.38326C89.4471 4.44272 90.1613 2.54951 92.542 1.46092C93.2087 1.1296 93.9705 0.940284 94.7323 0.940284C95.4942 0.892954 96.2084 1.03495 96.9226 1.31893C97.3035 1.46092 97.7321 1.69757 98.113 1.93422C98.4939 2.17087 98.8272 2.45485 99.1129 2.78616C99.5891 3.25947 99.97 3.92209 100.351 4.63204C100.732 5.43666 101.065 6.2886 101.256 6.90389C101.446 7.56652 101.637 8.22914 101.827 8.93909C102.017 9.69638 102.16 10.4537 102.255 11.1636C102.303 11.4003 102.303 11.5896 102.351 11.7789V11.9209C103.208 11.069 104.636 9.55439 106.065 8.08715C106.684 7.42453 107.303 6.80923 107.969 6.09928C108.684 5.342 109.588 4.44272 110.588 3.63811C111.683 2.73884 112.874 1.93422 114.112 1.50825C114.635 1.31893 115.159 1.22427 115.683 1.12961C116.254 1.08228 116.778 1.08227 117.302 1.17694C118.064 1.31893 118.73 1.60291 119.349 1.98155C119.968 2.36019 120.492 2.88082 120.921 3.49612C121.159 3.82743 121.301 4.15874 121.444 4.49005C121.492 4.44272 121.492 4.44272 121.492 4.39539C121.54 4.34806 121.54 4.30073 121.587 4.2534C122.111 3.59078 122.73 3.02282 123.397 2.54951C124.063 2.07621 124.825 1.69757 125.587 1.36626C126.206 1.12961 126.825 0.940286 127.444 0.845625C128.063 0.750965 128.682 0.703632 129.348 0.750962C129.967 0.798293 130.539 0.845623 131.063 0.987614C131.634 1.1296 132.158 1.2716 132.729 1.50825C133.491 1.79223 134.205 2.2182 134.824 2.64417C135.443 3.11747 136.015 3.63811 136.491 4.2534C136.967 4.86869 137.395 5.62598 137.633 6.43059C137.776 6.85656 137.872 7.32987 137.919 7.80317C138.014 7.42453 138.11 7.04588 138.252 6.61991C138.776 4.86869 139.776 3.59078 141.109 2.6915C142.3 1.83956 143.776 1.36626 145.442 1.08228C146.728 0.845625 148.156 0.798295 149.442 0.845625C150.918 0.940286 152.299 1.17694 153.346 1.50825C153.918 1.69757 154.442 1.88689 154.965 2.12354C155.537 2.36019 156.013 2.59684 156.394 2.83349C157.346 3.35413 158.441 4.15874 159.441 5.01068C160.346 5.8153 161.203 6.66724 161.822 7.51919C162.108 7.99249 162.393 8.46579 162.727 9.03375ZM162.536 28.5811C162.536 28.5338 162.488 28.5338 162.488 28.4865C162.488 28.4392 162.441 28.4392 162.441 28.3918C162.441 28.3445 162.393 28.3445 162.393 28.2972C162.393 28.2498 162.346 28.2498 162.346 28.2025C162.346 28.1552 162.298 28.1552 162.298 28.1078C162.298 28.0605 162.25 28.0605 162.25 28.0132C162.25 27.9658 162.203 27.9185 162.203 27.9185C162.203 27.8712 162.155 27.8239 162.155 27.8239L162.108 27.7292V27.6819C162.108 27.6345 162.06 27.6345 162.06 27.5872L162.012 27.4925V27.4452C162.012 27.3979 161.965 27.3979 161.965 27.3506L161.917 27.2559V27.2086C161.917 27.1612 161.869 27.1612 161.869 27.1139V27.0666L161.822 26.9719C161.822 26.9246 161.774 26.9246 161.774 26.8772V26.8299L161.727 26.7353V26.6879L161.679 26.5933L161.631 26.4986V26.4513L161.584 26.3566C161.584 26.3093 161.536 26.3093 161.536 26.262C161.536 26.2146 161.489 26.1673 161.489 26.1673C161.489 26.12 161.441 26.0726 161.441 26.0726L161.393 25.978V25.9306L161.346 25.836V25.7887C161.346 25.7413 161.346 25.7413 161.298 25.694C161.298 25.6467 161.25 25.5993 161.25 25.5993C161.25 25.552 161.25 25.552 161.203 25.5047V25.4573L160.965 25.0314V24.984L160.917 24.8894V24.8421L160.87 24.7474V24.7001L160.822 24.6054V24.5581L160.774 24.4634V24.4161L160.727 24.3214V24.2741V24.1794V24.1321V24.0374V23.9901C160.727 23.9428 160.727 23.9428 160.679 23.8954V23.8481L160.631 23.7535V23.7061V23.6115V23.5641V23.4695V23.4221V23.3275V23.2802V23.1855V23.1382C160.631 23.0908 160.631 23.0908 160.631 23.0435V22.9962V22.9488V22.9015V22.8542V22.8069V22.7122V22.6649V22.5702V22.5229V22.4282V22.3809V22.2862V22.2389V22.1442V22.0496C160.631 22.0022 160.631 21.9549 160.631 21.9549V21.9076V21.8129V21.7656V21.6709C160.631 21.6236 160.631 21.5763 160.631 21.5289C160.631 21.4816 160.631 21.4343 160.631 21.3869C160.631 21.3396 160.631 21.2923 160.631 21.245C160.631 21.1976 160.631 21.1503 160.631 21.103C160.631 21.0556 160.631 21.0083 160.631 20.961C160.631 20.9136 160.631 20.8663 160.631 20.819C160.631 20.7717 160.631 20.7243 160.631 20.677C160.631 20.6297 160.631 20.5823 160.631 20.535C160.631 20.4877 160.631 20.4403 160.631 20.393C160.631 20.3457 160.631 20.2983 160.631 20.251C160.631 20.2037 160.631 20.1564 160.631 20.109V20.0617V19.967V19.9197V19.825V19.7777V19.6831V19.6357C160.631 19.5884 160.631 19.5411 160.631 19.4937C160.631 19.4464 160.631 19.3991 160.631 19.3517V19.3044V19.2098V19.1624V19.0678V19.0204V18.9258V18.8311V18.7838V18.6891V18.6418V18.5471V18.4998V18.4051V18.3578V18.2158C160.631 18.1685 160.631 18.1212 160.631 18.0738V18.0265V17.9318V17.8845V17.8372V17.7898V17.6952C160.631 17.6479 160.631 17.6005 160.631 17.5532V17.4585V17.4112V17.3165V17.2692V17.2219V17.1746V17.0799V16.9852V16.9379V16.8432V16.7959V16.7486V16.7013V16.6539V16.6066V16.5119V16.4173V16.3699V16.3226V16.2753V16.228V16.1806V16.086V16.0386V15.944V15.8966V15.8493V15.802V15.7546V15.7073V15.66V15.6127V15.5653V15.518V15.4233V15.376V15.3287V15.2813V15.234V15.1867V15.1394V15.092V14.9974V14.9027V14.8554V14.808V14.7607V14.7134V14.6661V14.6187V14.5714L160.679 14.4767V14.4294V14.3347V14.2874V14.2401V14.1927V14.1454V14.0981V14.0034V13.9561L160.727 13.8614V13.8141V13.7668V13.7194L160.774 13.6248V13.5775L160.822 13.4828L160.87 13.3881L160.917 13.2935V13.2461V13.1988V13.1515V13.1042V13.0568V13.0095V12.9622V12.9148V12.8675L160.965 12.7728V12.7255L161.012 12.6309V12.5835V12.5362V12.4889V12.4415V12.3942V12.3469V12.2995V12.2522V12.2049V12.1576V12.1102V12.0629V12.0156V11.9682V11.9209V11.8736V11.8262V11.7789V11.7316V11.6842V11.6369V11.5896V11.5423V11.4949C160.584 10.643 160.06 9.79104 159.393 8.89176C158.346 7.3772 156.298 5.76797 154.727 4.86869C154.108 4.53738 153.156 4.11141 152.108 3.73277C150.442 3.16481 147.585 2.92815 145.299 3.35413C143.157 3.73277 141.443 4.53738 140.443 6.09928C139.967 6.90389 139.728 7.8505 139.49 8.74977C138.3 13.4828 138.014 19.0678 137.491 23.8481C136.967 28.7231 137.014 30.6637 136.919 35.1127C136.872 37.9999 136.586 41.1237 137.586 42.3542C139.348 45.478 146.061 45.8093 150.251 44.2475C153.727 42.9222 156.298 40.7923 158.155 38.1418V38.0945V38.0472V37.9999V37.9525V37.9052V37.8579V37.8105V37.7632V37.7159V37.6685V37.6212C158.155 37.5739 158.155 37.5739 158.155 37.5266V37.4792V37.4319V37.3846V37.3372C158.155 37.2899 158.155 37.2899 158.155 37.2426V37.1952V37.1479C158.298 36.3433 158.632 35.6333 159.203 34.9234C159.584 34.4974 160.012 34.1188 160.489 33.7875L160.536 33.7401L160.584 33.6928L160.631 33.6455C161.012 32.6042 161.346 31.5156 161.631 30.3797C162.346 29.3858 162.441 29.0071 162.536 28.5811ZM162.393 20.393C162.393 20.4403 162.393 20.535 162.393 20.5823C162.393 20.6297 162.393 20.7243 162.393 20.7717V20.819C162.393 20.8663 162.393 20.9136 162.393 20.961C162.393 21.0083 162.393 21.0556 162.393 21.103V21.1503C162.488 22.0969 162.679 23.0908 162.965 24.0848C163.298 25.2207 163.774 26.3093 164.345 27.3506C164.393 27.3979 164.441 27.4925 164.441 27.5399C165.583 29.4331 167.155 31.0423 169.107 31.9416C169.583 32.1782 170.154 32.5569 170.345 33.0775C170.631 33.9295 169.774 34.7341 168.345 34.4501C166.393 34.1188 164.583 33.8348 163.012 34.5921C162.822 34.6867 162.679 34.7814 162.488 34.8761C162.155 35.1127 161.822 35.3494 161.584 35.586C161.155 36.0593 160.917 36.5326 160.87 37.0532C160.822 37.2426 160.822 37.4319 160.87 37.6685C160.87 37.7159 160.87 37.7632 160.87 37.8105C160.87 37.8579 160.87 37.9052 160.87 37.9525C161.012 38.8991 161.536 39.8931 162.25 40.8397C164.298 43.6795 167.869 45.0047 169.916 45.1467C175.678 45.62 180.582 42.9222 182.82 37.3372C184.629 32.7935 184.391 26.6406 180.201 23.4695C179.63 23.0435 179.297 22.7122 178.63 22.2862C177.011 21.3396 177.487 18.9731 179.535 19.6831C184.391 21.3396 190.2 21.103 188.915 14.2401C186.963 3.92209 174.44 -0.716273 167.012 6.80923C165.583 8.27647 164.441 10.075 163.631 12.1102C163.536 12.4415 163.393 12.7728 163.25 13.1515C162.584 15.1867 162.25 17.2692 162.298 19.3991C162.298 19.4464 162.298 19.4937 162.298 19.5411V19.6357C162.298 19.6831 162.298 19.7304 162.298 19.825V19.8724C162.298 19.9197 162.298 20.0144 162.298 20.0617V20.109C162.393 20.251 162.393 20.3457 162.393 20.393ZM72.7342 21.6236C71.8771 26.262 71.3058 30.3797 71.3058 33.9295C71.3058 36.8639 71.8295 42.3069 74.496 44.2475C75.4483 44.9101 76.591 45.194 77.7338 45.0994C78.9242 45.0047 80.0193 44.6261 80.924 44.0108C82.9238 42.6382 84.019 39.2304 84.6856 36.438V36.3433C84.3047 32.6042 84.3523 28.1552 84.7332 23.7061C84.7808 23.0435 84.8284 22.4282 84.9237 21.8129C83.2095 22.7122 81.4001 23.2328 79.6384 23.3275C77.0672 23.4695 74.6864 22.9015 72.7342 21.6236Z" fill="#12100B"/>
<path fill-rule="evenodd" clip-rule="evenodd" d="M82.7819 3.68551C81.9248 3.3542 81.0201 3.16488 80.1154 3.11755C79.1631 3.07022 78.2108 3.25954 77.2585 3.59085C76.1158 4.01682 75.0206 4.77411 74.2112 5.76805C73.4493 6.76198 72.9256 7.99257 72.8303 9.41247C72.7827 10.4537 72.9732 11.637 73.4493 12.8676C74.0683 14.4768 75.1159 15.4707 76.4015 15.9914C77.1157 16.2754 77.8775 16.4173 78.6394 16.37C79.4488 16.37 80.3059 16.1807 81.1154 15.8967C83.2104 15.0921 85.115 13.3882 86.1149 10.927C86.4006 10.2171 86.5435 9.50713 86.5911 8.89184C86.6387 7.66125 86.2578 6.61999 85.5912 5.76805C84.9245 4.82144 83.9246 4.11149 82.7819 3.68551Z" fill="#1788CA"/>
<path d="M28.2151 4.34816C26.5009 4.01685 25.0725 5.3421 24.025 6.52535C22.5013 8.3239 21.3109 10.5484 20.5015 13.1516C19.7872 15.3288 19.3587 17.7426 19.1206 20.3931C19.073 21.2451 19.0254 22.097 18.9778 22.9016C18.9302 23.4696 18.8825 24.1322 18.3112 24.3688C18.0255 24.5108 17.7874 24.4635 17.5017 24.3215C16.9779 23.9902 17.0256 23.3276 17.0732 22.7596C17.1208 21.9077 17.216 21.1031 17.3112 20.2511C17.4541 17.6006 17.3589 15.1395 17.0256 12.9149C16.597 10.1698 15.74 7.75594 14.4067 5.72074C13.1211 3.73287 11.0737 2.12364 8.83578 3.7802C7.07403 5.05812 5.12182 8.93919 4.35998 10.9271C2.93153 14.7608 2.36015 19.0205 2.40776 23.1383C2.50299 28.5812 3.64575 33.7402 5.26466 37.2427C9.64524 46.7087 21.6442 48.3179 27.7865 39.5619C30.0721 36.3434 32.1671 31.1371 33.167 25.4101C33.9765 20.7244 33.9765 15.7074 32.6433 11.1637C32.2623 9.8858 31.5005 7.61395 30.4054 6.05205C29.7864 5.15278 29.0721 4.53749 28.2151 4.34816Z" fill="#E63932"/>
<path fill-rule="evenodd" clip-rule="evenodd" d="M147.348 11.4951C145.062 11.9211 144.872 12.3944 144.158 15.7075C143.729 17.7427 143.443 19.9199 143.062 22.0497C142.872 23.3277 142.158 27.4454 142.729 28.7233C143.443 30.2379 148.967 31.5158 151.966 25.3155C152.823 23.5643 153.395 21.6238 153.585 19.5886C154.061 15.2815 151.728 10.6431 147.348 11.4951ZM140.396 7.37736C138.872 12.347 138.587 18.5946 138.015 23.8483C137.491 28.7233 137.539 30.6638 137.444 35.1129C137.396 38 137.111 41.1238 138.11 42.3544C139.872 45.4782 146.586 45.8095 150.776 44.2476C154.252 42.9224 156.823 40.7925 158.68 38.142C158.633 37.6687 158.633 37.1954 158.68 36.7221C158.918 35.0656 159.871 33.835 161.299 32.983C161.68 31.9418 162.013 30.8532 162.299 29.7172C162.394 29.3386 162.489 28.96 162.585 28.5813C161.156 26.1201 160.299 23.1857 160.156 20.4878C160.013 18.074 160.299 15.7075 160.87 13.5303C161.061 12.8203 161.299 12.1577 161.537 11.4478C161.109 10.5958 160.585 9.74388 159.918 8.8446C158.871 7.33003 156.823 5.72081 155.252 4.82153C154.633 4.49022 153.681 4.06425 152.633 3.6856C150.967 3.11764 148.11 2.88099 145.824 3.30696C143.158 3.82759 141.158 4.91619 140.396 7.37736Z" fill="#FFDD00"/>
<path fill-rule="evenodd" clip-rule="evenodd" d="M162.394 20.3931C162.632 24.8895 165.013 30.0485 169.251 31.9417C169.727 32.1784 170.298 32.557 170.489 33.0776C170.774 33.9296 169.917 34.7342 168.489 34.4502C166.537 34.1189 164.727 33.8349 163.156 34.5922C160.109 36.0121 160.632 38.4733 162.394 40.8398C164.442 43.6796 168.013 45.0049 170.06 45.1469C175.821 45.6202 180.726 42.9223 182.964 37.3374C184.773 32.7937 184.535 26.6407 180.345 23.4696C179.774 23.0436 179.44 22.7123 178.774 22.2864C177.155 21.3398 177.631 18.9732 179.678 19.6832C184.535 21.3398 190.344 21.1031 189.058 14.2402C187.106 3.92222 174.583 -0.716138 167.156 6.80937C163.965 10.0752 162.108 14.9975 162.394 20.3931Z" fill="#FF4438"/>
<path fill-rule="evenodd" clip-rule="evenodd" d="M122.159 21.6236C121.302 26.262 120.731 30.3797 120.731 33.9295C120.731 37.006 121.112 39.6091 122.064 41.739C122.493 42.6856 123.064 43.6322 123.874 44.2475C124.826 44.9101 125.969 45.1941 127.111 45.0994C128.302 45.0048 129.397 44.6261 130.302 44.0108C132.92 42.2123 134.016 36.9586 134.539 34.1188C135.301 30.0958 135.682 25.3627 135.73 20.9137C133.635 22.3809 131.301 23.1855 129.016 23.3275C126.492 23.4695 124.112 22.9016 122.159 21.6236Z" fill="#1788CA"/>
<path fill-rule="evenodd" clip-rule="evenodd" d="M131.873 3.68551C131.016 3.3542 130.111 3.16488 129.206 3.11755C128.254 3.07022 127.302 3.25954 126.349 3.59085C125.207 4.01682 124.111 4.77411 123.302 5.76805C122.54 6.76198 122.016 7.99257 121.921 9.41247C121.874 10.4537 122.064 11.637 122.54 12.8676C123.159 14.4768 124.207 15.4707 125.492 15.9914C126.207 16.2754 126.968 16.4173 127.73 16.37C128.54 16.37 129.397 16.1807 130.206 15.8967C132.301 15.0921 134.206 13.3882 135.206 10.927C135.491 10.2171 135.634 9.50713 135.682 8.89184C135.73 7.66125 135.349 6.61999 134.682 5.76805C134.015 4.82144 133.015 4.11149 131.873 3.68551Z" fill="#1788CA"/>
<path fill-rule="evenodd" clip-rule="evenodd" d="M88.8288 43.3955C89.924 44.7207 92.1619 45.8093 94.2093 44.7207C95.5902 44.0108 96.9234 41.9283 97.6376 40.2717C100.066 34.7341 100.399 30.995 104.208 36.012C106.494 39.0411 107.542 40.5084 110.303 43.4428C113.112 46.3773 116.874 45.2887 117.541 42.2122C118.064 39.7037 116.779 36.6273 116.112 34.1661C115.303 31.0896 113.684 28.7231 113.208 25.694C112.874 23.5641 113.065 21.2923 114.35 18.7364C115.874 15.8493 117.969 13.1988 118.969 10.1223C119.493 8.51312 119.921 6.2886 118.922 4.77403C118.398 4.01675 117.684 3.54345 116.779 3.40146C116.16 3.3068 115.493 3.35413 114.779 3.59078C112.874 4.2534 110.875 6.24127 109.494 7.66118C106.637 10.5957 103.161 14.5714 101.875 14.808C101.113 14.95 100.637 14.4294 100.352 13.7668C100.066 13.0568 100.018 12.2522 99.8755 11.4949C99.6374 10.075 99.3517 8.74977 98.9708 7.56652C98.6851 6.61991 98.0661 5.05801 97.3519 4.30073C96.9234 3.87476 96.4948 3.54345 95.9711 3.35413C95.114 3.02281 94.2093 3.07015 93.3522 3.44879C91.6857 4.2534 91.162 5.86263 90.543 7.47186C89.7811 9.36507 89.1621 11.3056 88.6384 13.1515C87.6384 16.7959 87.1147 20.0617 86.829 23.8008C86.21 32.2256 86.7338 40.5084 88.8288 43.3955Z" fill="#FF4438"/>
</g>
<defs>
<clipPath id="clip0_1039_3477">
<rect width="210" height="48" fill="white"/>
</clipPath>
</defs>
</svg>
